<svg width="17" height="20" viewBox="0 0 17 20" fill="none" xmlns="http://www.w3.org/2000/svg">
<path d="M8.27943 17.956C10.3838 16.0241 11.9448 14.2691 12.9625 12.6908C13.9802 11.1125 14.489 9.71108 14.489 8.48642C14.489 6.6063 13.8896 5.06684 12.6908 3.86805C11.492 2.66925 10.0216 2.06986 8.27943 2.06986C6.5373 2.06986 5.06684 2.66925 3.86805 3.86805C2.66925 5.06684 2.06986 6.6063 2.06986 8.48642C2.06986 9.71108 2.5787 11.1125 3.59638 12.6908C4.61406 14.2691 6.17508 16.0241 8.27943 17.956ZM8.27943 20C8.03795 20 7.79646 19.9569 7.55498 19.8706C7.3135 19.7844 7.09789 19.655 6.90815 19.4825C5.78698 18.4476 4.79517 17.4386 3.93273 16.4554C3.07029 15.4722 2.35015 14.5192 1.77232 13.5964C1.19448 12.6736 0.754636 11.7853 0.452781 10.9314C0.150927 10.0776 0 9.26261 0 8.48642C0 5.89909 0.832255 3.83786 2.49677 2.30272C4.16128 0.767572 6.08883 0 8.27943 0C10.47 0 12.3976 0.767572 14.0621 2.30272C15.7266 3.83786 16.5589 5.89909 16.5589 8.48642C16.5589 9.26261 16.4079 10.0776 16.1061 10.9314C15.8042 11.7853 15.3644 12.6736 14.7865 13.5964C14.2087 14.5192 13.4886 15.4722 12.6261 16.4554C11.7637 17.4386 10.7719 18.4476 9.65071 19.4825C9.46097 19.655 9.24536 19.7844 9.00388 19.8706C8.7624 19.9569 8.52091 20 8.27943 20ZM8.27943 10.3493C8.84864 10.3493 9.33592 10.1466 9.74127 9.74127C10.1466 9.33592 10.3493 8.84864 10.3493 8.27943C10.3493 7.71022 10.1466 7.22294 9.74127 6.81759C9.33592 6.41225 8.84864 6.20957 8.27943 6.20957C7.71022 6.20957 7.22294 6.41225 6.81759 6.81759C6.41225 7.22294 6.20957 7.71022 6.20957 8.27943C6.20957 8.84864 6.41225 9.33592 6.81759 9.74127C7.22294 10.1466 7.71022 10.3493 8.27943 10.3493Z" fill="#00FF19"/>
</svg>
