<svg width="20" height="20" viewBox="0 0 20 20" fill="none" xmlns="http://www.w3.org/2000/svg">
<path d="M10 20C9.68519 20 9.4213 19.8935 9.20833 19.6806C8.99537 19.4676 8.88889 19.2037 8.88889 18.8889V11.1389C7.7037 11.1389 6.56482 10.912 5.47222 10.4583C4.37963 10.0046 3.41667 9.36111 2.58333 8.52778C1.75 7.69444 1.11111 6.73148 0.666667 5.63889C0.222222 4.5463 0 3.40741 0 2.22222V1.11111C0 0.796296 0.106481 0.532407 0.319444 0.319444C0.532407 0.106481 0.796296 0 1.11111 0H2.22222C3.38889 0 4.51852 0.226852 5.61111 0.680556C6.7037 1.13426 7.66667 1.77778 8.5 2.61111C9.07407 3.18519 9.55093 3.81481 9.93056 4.5C10.3102 5.18519 10.6019 5.91667 10.8056 6.69444C10.8981 6.56482 11 6.43982 11.1111 6.31944C11.2222 6.19907 11.3426 6.07407 11.4722 5.94444C12.3056 5.11111 13.2685 4.46759 14.3611 4.01389C15.4537 3.56019 16.5926 3.33333 17.7778 3.33333H18.8889C19.2037 3.33333 19.4676 3.43981 19.6806 3.65278C19.8935 3.86574 20 4.12963 20 4.44444V5.55556C20 6.74074 19.7731 7.87963 19.3194 8.97222C18.8657 10.0648 18.2222 11.0278 17.3889 11.8611C16.5556 12.6944 15.5972 13.3333 14.5139 13.7778C13.4306 14.2222 12.2963 14.4444 11.1111 14.4444V18.8889C11.1111 19.2037 11.0046 19.4676 10.7917 19.6806C10.5787 19.8935 10.3148 20 10 20ZM8.88889 8.88889C8.88889 8 8.71759 7.15278 8.375 6.34722C8.03241 5.54167 7.5463 4.82407 6.91667 4.19444C6.28704 3.56481 5.56944 3.0787 4.76389 2.73611C3.95833 2.39352 3.11111 2.22222 2.22222 2.22222C2.22222 3.11111 2.38889 3.96296 2.72222 4.77778C3.05556 5.59259 3.53704 6.31482 4.16667 6.94444C4.7963 7.57407 5.51852 8.05556 6.33333 8.38889C7.14815 8.72222 8 8.88889 8.88889 8.88889ZM11.1111 12.2222C12 12.2222 12.8472 12.0556 13.6528 11.7222C14.4583 11.3889 15.1759 10.9074 15.8056 10.2778C16.4352 9.64815 16.9213 8.92593 17.2639 8.11111C17.6065 7.2963 17.7778 6.44444 17.7778 5.55556C16.8889 5.55556 16.037 5.72685 15.2222 6.06944C14.4074 6.41204 13.6852 6.89815 13.0556 7.52778C12.4259 8.15741 11.9444 8.875 11.6111 9.68056C11.2778 10.4861 11.1111 11.3333 11.1111 12.2222Z" fill="#00FF19"/>
</svg>
