<svg width="29" height="25" viewBox="0 0 29 25" fill="none" xmlns="http://www.w3.org/2000/svg">
<path d="M7.53036 21.465C6.42712 20.3618 5.56292 19.0869 4.93775 17.6405C4.31258 16.194 4 14.6985 4 13.154C4 11.6094 4.2942 10.0833 4.88259 8.57554C5.47098 7.06778 6.42712 5.65196 7.751 4.32808C8.60908 3.47001 9.66941 2.73452 10.932 2.12161C12.1946 1.5087 13.6901 1.0245 15.4185 0.669014C17.1469 0.313527 19.1205 0.0990084 21.3392 0.0254593C23.5579 -0.0480898 26.0402 0.0377175 28.786 0.282881C28.9822 2.88161 29.0435 5.27196 28.9699 7.45392C28.8964 9.63587 28.6941 11.6033 28.3631 13.3562C28.0322 15.1091 27.5663 16.6414 26.9657 17.953C26.365 19.2647 25.6234 20.3618 24.7408 21.2444C23.4415 22.5437 22.0624 23.4937 20.6037 24.0944C19.145 24.695 17.6556 24.9954 16.1356 24.9954C14.542 24.9954 12.9852 24.6828 11.4652 24.0576C9.94522 23.4325 8.63359 22.5682 7.53036 21.465ZM11.6491 20.8766C12.3601 21.2934 13.0894 21.5937 13.8372 21.7776C14.5849 21.9615 15.3511 22.0534 16.1356 22.0534C17.2633 22.0534 18.3788 21.8266 19.4821 21.3731C20.5853 20.9195 21.6395 20.1902 22.6447 19.185C23.086 18.7437 23.5334 18.1247 23.987 17.3279C24.4405 16.5311 24.8328 15.4892 25.1637 14.202C25.4947 12.9149 25.746 11.3581 25.9176 9.53168C26.0892 7.70521 26.1138 5.52938 25.9912 3.0042C24.7899 2.95516 23.4353 2.93678 21.9276 2.94903C20.4198 2.96129 18.9182 3.07775 17.4227 3.29839C15.9272 3.51904 14.5053 3.87453 13.1569 4.36485C11.8085 4.85518 10.7052 5.52938 9.84715 6.38745C8.74392 7.49069 7.98391 8.58167 7.56713 9.66039C7.15035 10.7391 6.94196 11.7811 6.94196 12.7862C6.94196 14.2327 7.21777 15.5014 7.76939 16.5924C8.32101 17.6834 8.80521 18.4495 9.22198 18.8908C10.2517 16.9295 11.6123 15.0479 13.304 13.2459C14.9956 11.444 16.9692 9.96684 19.2247 8.81457C17.4595 10.3591 15.9211 12.1059 14.6095 14.0549C13.2978 16.004 12.311 18.2779 11.6491 20.8766Z" fill="#00FF1A"/>
</svg>
