<svg width="25" height="25" viewBox="0 0 25 25" fill="none" xmlns="http://www.w3.org/2000/svg">
<path d="M12.5 25C12.1065 25 11.7766 24.8669 11.5104 24.6007C11.2442 24.3345 11.1111 24.0046 11.1111 23.6111V13.9236C9.62963 13.9236 8.20602 13.64 6.84028 13.0729C5.47454 12.5058 4.27083 11.7014 3.22917 10.6597C2.1875 9.61806 1.38889 8.41435 0.833333 7.04861C0.277778 5.68287 0 4.25926 0 2.77778V1.38889C0 0.99537 0.133102 0.665509 0.399306 0.399306C0.665509 0.133102 0.99537 0 1.38889 0H2.77778C4.23611 0 5.64815 0.283565 7.01389 0.850694C8.37963 1.41782 9.58333 2.22222 10.625 3.26389C11.3426 3.98148 11.9387 4.76852 12.4132 5.625C12.8877 6.48148 13.2523 7.39583 13.5069 8.36806C13.6227 8.20602 13.75 8.04977 13.8889 7.89931C14.0278 7.74884 14.1782 7.59259 14.3403 7.43056C15.3819 6.38889 16.5856 5.58449 17.9514 5.01736C19.3171 4.45023 20.7407 4.16667 22.2222 4.16667H23.6111C24.0046 4.16667 24.3345 4.29977 24.6007 4.56597C24.8669 4.83218 25 5.16204 25 5.55556V6.94444C25 8.42593 24.7164 9.84954 24.1493 11.2153C23.5822 12.581 22.7778 13.7847 21.7361 14.8264C20.6944 15.8681 19.4965 16.6667 18.1424 17.2222C16.7882 17.7778 15.3704 18.0556 13.8889 18.0556V23.6111C13.8889 24.0046 13.7558 24.3345 13.4896 24.6007C13.2234 24.8669 12.8935 25 12.5 25ZM11.1111 11.1111C11.1111 10 10.897 8.94097 10.4688 7.93403C10.0405 6.92708 9.43287 6.03009 8.64583 5.24306C7.8588 4.45602 6.96181 3.84838 5.95486 3.42014C4.94792 2.9919 3.88889 2.77778 2.77778 2.77778C2.77778 3.88889 2.98611 4.9537 3.40278 5.97222C3.81944 6.99074 4.4213 7.89352 5.20833 8.68056C5.99537 9.46759 6.89815 10.0694 7.91667 10.4861C8.93519 10.9028 10 11.1111 11.1111 11.1111ZM13.8889 15.2778C15 15.2778 16.059 15.0694 17.066 14.6528C18.0729 14.2361 18.9699 13.6343 19.7569 12.8472C20.544 12.0602 21.1516 11.1574 21.5799 10.1389C22.0081 9.12037 22.2222 8.05556 22.2222 6.94444C21.1111 6.94444 20.0463 7.15857 19.0278 7.58681C18.0093 8.01505 17.1065 8.62269 16.3194 9.40972C15.5324 10.1968 14.9306 11.0938 14.5139 12.1007C14.0972 13.1076 13.8889 14.1667 13.8889 15.2778Z" fill="#00FF1A"/>
</svg>
