<svg width="32" height="32" viewBox="0 0 32 32" fill="none" xmlns="http://www.w3.org/2000/svg">
<path d="M7.96203 26C7.13502 26 6.4346 25.7087 5.86076 25.1261C5.28692 24.5435 5 23.8323 5 22.9927V20.6022C5 20.1567 5.15612 19.7754 5.46835 19.4584C5.78059 19.1414 6.15612 18.9829 6.59494 18.9829H25.3797C25.8186 18.9829 26.1941 19.1414 26.5063 19.4584C26.8186 19.7754 26.9747 20.1567 26.9747 20.6022V22.9927C26.9747 23.8323 26.6878 24.5435 26.1139 25.1261C25.5401 25.7087 24.8397 26 24.0127 26H7.96203ZM15.9873 16.9266C15.3629 16.9266 14.8312 17.0979 14.3924 17.4406C13.9536 17.7834 13.2532 17.9547 12.2911 17.9547C11.3291 17.9547 10.6371 17.7834 10.2152 17.4406C9.79325 17.0979 9.27004 16.9266 8.64557 16.9266C8.20675 16.9266 7.83966 17.0208 7.5443 17.2093C7.24895 17.3978 6.88186 17.5692 6.44304 17.7234C6.08861 17.8605 5.75949 17.7919 5.4557 17.5177C5.1519 17.2436 5 16.8923 5 16.4639C5 16.0355 5.13924 15.6542 5.41772 15.3201C5.6962 14.9859 6.02954 14.7246 6.41772 14.5361C6.70464 14.399 7.01266 14.2662 7.34177 14.1377C7.67089 14.0092 8.10549 13.9449 8.64557 13.9449C9.6076 13.9449 10.2996 14.1163 10.7215 14.459C11.1435 14.8017 11.6667 14.9731 12.2911 14.9731C12.9156 14.9731 13.4473 14.8017 13.8861 14.459C14.3249 14.1163 15.0253 13.9449 15.9873 13.9449C16.9494 13.9449 17.654 14.1163 18.1013 14.459C18.5485 14.8017 19.0844 14.9731 19.7089 14.9731C20.3333 14.9731 20.8565 14.8017 21.2785 14.459C21.7004 14.1163 22.3924 13.9449 23.3544 13.9449C23.8776 13.9449 24.3122 14.0049 24.6582 14.1248C25.0042 14.2448 25.3207 14.3733 25.6076 14.5104C25.9958 14.6989 26.3249 14.9645 26.5949 15.3072C26.865 15.6499 27 16.0355 27 16.4639C27 16.9094 26.8481 17.2607 26.5443 17.5177C26.2405 17.7748 25.9114 17.8348 25.557 17.6977C25.1688 17.5435 24.8312 17.3764 24.5443 17.1965C24.2574 17.0165 23.903 16.9266 23.481 16.9266C22.8565 16.9266 22.3122 17.0979 21.8481 17.4406C21.384 17.7834 20.6709 17.9547 19.7089 17.9547C18.7468 17.9547 18.0422 17.7834 17.5949 17.4406C17.1477 17.0979 16.6118 16.9266 15.9873 16.9266ZM15.9873 5C17.3207 5 18.6456 5.1071 19.962 5.3213C21.2785 5.5355 22.4557 5.89106 23.4937 6.388C24.5316 6.88495 25.3713 7.53182 26.0127 8.32864C26.654 9.12546 26.9747 10.1151 26.9747 11.2974C26.9747 11.743 26.8186 12.1242 26.5063 12.4412C26.1941 12.7583 25.8186 12.9168 25.3797 12.9168H6.59494C6.15612 12.9168 5.78059 12.7583 5.46835 12.4412C5.15612 12.1242 5 11.743 5 11.2974C5 10.1151 5.32068 9.12546 5.96203 8.32864C6.60338 7.53182 7.44304 6.88495 8.48101 6.388C9.51899 5.89106 10.6962 5.5355 12.0127 5.3213C13.3291 5.1071 14.654 5 15.9873 5Z" fill="#0CEE23"/>
</svg>
