<svg width="32" height="32" viewBox="0 0 32 32" fill="none" xmlns="http://www.w3.org/2000/svg">
<g clip-path="url(#clip0_70_1457)">
<circle cx="16" cy="16" r="16" fill="white"/>
<path d="M10.1451 26.1039C10.1451 26.0833 10.1451 26.0318 10.1451 25.9494C10.1451 25.867 10.1553 25.8155 10.176 25.7949L13.3931 15.9073L8.47466 16.2472L8.93867 14.7949L14.2282 14.0534L18.497 6.82303C18.4352 6.82303 18.3114 6.82303 18.1258 6.82303C17.9608 6.82303 17.7855 6.82303 17.6 6.82303C17.4143 6.80243 17.2288 6.79213 17.0431 6.79213C16.8782 6.79213 16.7648 6.79213 16.7029 6.79213C15.8986 6.79213 15.0944 6.82303 14.2901 6.88483C13.5065 6.94663 12.7125 7.01872 11.9083 7.10112C11.104 7.18352 10.2997 7.25562 9.49544 7.31741C8.7118 7.37921 7.91786 7.41011 7.1136 7.41011C6.86613 7.41011 6.6496 7.38951 6.464 7.34831C6.2784 7.30711 6.12373 7.13202 6 6.82303L6.61866 6.20506C6.61866 6.20506 6.82489 6.18446 7.23733 6.14326C7.67039 6.10206 8.22719 6.05056 8.90772 5.98876C9.58825 5.90637 10.3616 5.82397 11.2277 5.74157C12.0938 5.65918 12.96 5.57678 13.8261 5.49438C14.7129 5.39139 15.5583 5.30899 16.3626 5.24719C17.1875 5.16479 17.899 5.0927 18.497 5.0309C18.5176 5.0309 18.6104 5.0309 18.7754 5.0309C18.961 5.0103 19.0848 5 19.1466 5C19.2085 5 19.3116 5 19.456 5C19.6003 5 19.7447 5.0206 19.889 5.0618C20.0334 5.103 20.1468 5.16479 20.2293 5.24719C20.3324 5.32959 20.3427 5.45318 20.2602 5.61798L16.4554 13.9298H20.5386C20.683 14.2594 20.7036 14.5271 20.6005 14.7331C20.4974 14.9391 20.3221 15.1039 20.0746 15.2275C19.8272 15.3511 19.5075 15.4438 19.1157 15.5056C18.7445 15.5468 18.3527 15.588 17.9402 15.6292C17.5278 15.6704 17.1256 15.7116 16.7338 15.7528C16.342 15.794 16.0017 15.8455 15.713 15.9073C15.3212 16.5871 14.9294 17.308 14.5376 18.0702C14.1457 18.8324 13.7746 19.6048 13.424 20.3876C13.094 21.1704 12.795 21.9738 12.5269 22.7978C12.2795 23.6011 12.0835 24.3942 11.9392 25.177C11.9804 25.177 12.0629 25.1873 12.1866 25.2078C12.3104 25.2078 12.4341 25.2181 12.5578 25.2387C12.6816 25.2387 12.795 25.2387 12.8981 25.2387C13.0219 25.2387 13.1043 25.2387 13.1456 25.2387C14.156 25.2387 15.1459 25.1564 16.1152 24.9916C17.0844 24.8268 18.0537 24.6517 19.0229 24.4663C20.0127 24.2809 20.9923 24.1058 21.9615 23.941C22.9514 23.7762 23.9722 23.6938 25.0239 23.6938L25.143 23.7344L25.262 23.8125L25.381 23.8828L25.5 24V24.125V24.3125V24.5L25.381 24.625L25.262 24.7227L25.143 24.8164L25.0239 24.8989C23.8691 24.8989 22.7349 25.0122 21.6213 25.2387C20.5077 25.4447 19.3941 25.6816 18.2805 25.9494C17.1875 26.2172 16.0842 26.4644 14.9706 26.691C13.8777 26.897 12.7641 27 11.6298 27C11.5061 27 11.3514 26.9897 11.1659 26.9691C10.9802 26.9279 10.8153 26.8764 10.6709 26.8146C10.5265 26.7322 10.4028 26.6395 10.2997 26.5365C10.1966 26.4335 10.1451 26.2893 10.1451 26.1039Z" fill="url(#paint0_linear_70_1457)"/>
</g>
<defs>
<linearGradient id="paint0_linear_70_1457" x1="15.512" y1="5" x2="15.512" y2="27" gradientUnits="userSpaceOnUse">
<stop stop-color="#00FF1A"/>
<stop offset="1" stop-color="#14E329"/>
</linearGradient>
<clipPath id="clip0_70_1457">
<rect width="32" height="32" fill="white"/>
</clipPath>
</defs>
</svg>
