<svg xmlns="http://www.w3.org/2000/svg" width="134" height="150" fill="none"><path fill="#00FF1A" fill-rule="evenodd" d="m59.9276 49.8334.0324.0184L31.3617 93.447l-20.4354-.1111c-2.90632-.0154-3.96945-1.9946-2.35548-4.4486L24.7671 64.2606c-3.4619-.8456-6.8431-2.2837-10.0004-4.3448-15.015785-9.802-19.28416-29.9829-9.53374-45.0753C14.9834-.25184 35.0603-4.54056 50.0761 5.26148 64.9259 14.9552 69.2646 34.8 59.9277 49.835l-.0001-.0016Zm69.1464 0 .032.0184-28.598 43.5952-20.4354-.1111c-2.9063-.0154-3.9694-1.9945-2.3555-4.4485l16.1963-24.6267c-3.4619-.8456-6.8431-2.2837-10.0004-4.3447-15.0158-9.8021-19.2842-29.983-9.5337-45.0754C84.1297-.251753 104.207-4.54044 119.222 5.26162 134.072 14.9554 138.411 34.8 129.074 49.835v-.0016Zm-27.506-6.6452c6.472 0 11.718-5.2736 11.718-11.779s-5.246-11.7791-11.718-11.7791c-6.4724 0-11.7189 5.2737-11.7189 11.7791s5.2465 11.779 11.7189 11.779Zm-69.1467 0c6.472 0 11.7186-5.2736 11.7186-11.779s-5.2466-11.7791-11.7186-11.7791-11.7186 5.2737-11.7186 11.7791 5.2466 11.779 11.7186 11.779ZM123.524 117.18v-14.011l7.984-2.509V150h-7.984v-1.969c-2.22 1.299-4.949 1.969-8.151 1.969-9.726 0-15.082-6.178-15.082-17.395 0-11.216 5.356-17.394 15.082-17.394 3.202 0 5.931.67 8.151 1.969Zm-113.0589-3.641v9.031h15.8027v8.029H10.4651V150H2.48056v-44.489H29.761v8.028H10.4651Zm70.946 28.76c5.8387 0 8.677-3.171 8.677-9.693 0-6.523-2.8383-9.694-8.677-9.694-5.8394 0-8.6774 3.171-8.6774 9.694 0 6.522 2.838 9.693 8.6774 9.693Zm-16.3851-9.694c0-11.216 5.819-17.394 16.3852-17.394 10.5655 0 16.3846 6.178 16.3846 17.394 0 11.217-5.8191 17.395-16.3846 17.395-10.5662 0-16.3852-6.178-16.3852-17.395Zm-18.8798 9.694c5.8387 0 8.6769-3.171 8.6769-9.693 0-6.523-2.8382-9.694-8.6769-9.694-5.8394 0-8.6775 3.171-8.6775 9.694 0 6.522 2.8381 9.693 8.6775 9.693Zm-16.3852-9.694c0-11.216 5.819-17.394 16.3853-17.394 10.5655 0 16.3845 6.178 16.3845 17.394 0 11.217-5.819 17.395-16.3845 17.395-10.5663 0-16.3853-6.178-16.3853-17.395Zm85.612 9.757c5 0 7.43-3.173 7.43-9.701 0-6.527-2.43-9.7-7.43-9.7s-7.43 3.173-7.43 9.7c0 6.528 2.43 9.701 7.43 9.701Z" clip-rule="evenodd"/></svg>