<svg width="200" height="106" viewBox="0 0 200 106" fill="none" xmlns="http://www.w3.org/2000/svg">
<path d="M0 60.6773H15.2211L23.6793 18.6056H8.45618L0 60.6773ZM9.29482 13.5877H24.5797L27.0916 0.999998H11.8127L9.29482 13.5877ZM21.1414 72.5159H36.3645L45.6653 27.0618H57.0817L58.7649 18.6056H47.5677L47.992 16.7032C48.6255 13.1175 49.8944 9.09163 55.6016 9.09163C58.988 9.09163 62.1574 9.30279 65.3267 10.7829L67.0199 1.90438C63.4878 0.658115 59.7714 0.0143543 56.0259 0C43.7629 0 35.3088 7.18924 32.1355 18.6056H26.8506L25.1594 27.0618H30.4442L21.1414 72.5159Z" fill="#00FF1A"/>
<path d="M69.3446 61.5239C87.3147 61.5239 99.7888 45.243 99.7888 31.9243C99.7888 21.988 90.6972 17.759 81.8187 17.759C62.1514 17.759 51.3745 35.3167 51.3745 47.3586C51.3745 57.2948 60.6773 61.5239 69.3446 61.5239ZM117.552 61.5239C135.522 61.5239 147.996 45.243 147.996 31.9243C147.996 21.988 138.693 17.759 129.813 17.759C110.151 17.759 99.3705 35.3068 99.3705 47.3586C99.3705 57.2948 108.884 61.5239 117.552 61.5239ZM172.731 60.6773H187.741L200 0.854575H184.779L181.183 18.6135L174.841 17.9801C160.042 17.9801 146.512 37.006 146.512 50.5378C146.512 56.0339 150.098 61.5319 156.237 61.5319C164.904 61.5319 171.036 57.3028 173.568 53.0737H174.412L172.731 60.6773ZM125.793 92.1793C113.978 101.969 98.8025 106.749 83.51 105.498C63.4243 104.229 49.0478 88.7948 46.512 72.5159H47.3566C52.008 82.6753 63.2132 92.1793 76.9562 93.6574C90.9004 95.3486 107.612 89.008 116.701 80.3386L106.554 72.5159H137.209L130.436 105.076L125.996 92.3904L125.793 92.1793Z" fill="#00FF1A"/>
</svg>
