<svg width="200" height="84" viewBox="0 0 200 84" fill="none" xmlns="http://www.w3.org/2000/svg">
<path fill-rule="evenodd" clip-rule="evenodd" d="M156.02 32.4176C155.742 33.929 155.302 35.6741 154.712 37.5974C154.119 39.5207 153.359 41.5497 152.463 43.6066C151.489 45.6802 150.479 47.6202 149.466 49.3682C148.464 51.0994 147.462 52.5885 146.501 53.7937C145.563 54.9683 144.692 55.8367 143.918 56.3766C143.334 56.783 143.008 56.8275 142.897 56.8275C142.844 56.8275 142.802 56.8192 142.758 56.7991C142.66 56.7549 142.335 56.5375 142.193 55.5049C142.059 54.5585 142.132 53.3144 142.401 51.8086C142.68 50.2583 143.117 48.4964 143.71 46.5843C144.294 44.6721 145.054 42.643 145.964 40.5583C146.866 38.4903 147.851 36.5614 148.898 34.8218C149.939 33.085 150.952 31.6126 151.912 30.4436C152.845 29.3025 153.716 28.448 154.501 27.8997C155.088 27.4933 155.411 27.4488 155.522 27.4488C155.578 27.4488 155.62 27.4571 155.658 27.4772C155.756 27.5193 156.082 27.7388 156.226 28.7714C156.357 29.7178 156.287 30.9424 156.02 32.4176ZM116.948 32.4176C116.669 33.929 116.23 35.6741 115.639 37.5974C115.044 39.5318 114.284 41.5581 113.391 43.6066C112.414 45.6858 111.403 47.6258 110.393 49.3682C109.388 51.1022 108.389 52.5913 107.429 53.7937C106.491 54.9682 105.622 55.8367 104.843 56.3766C104.258 56.783 103.936 56.8275 103.824 56.8275C103.772 56.8275 103.729 56.8192 103.685 56.8001C103.587 56.7559 103.262 56.5385 103.12 55.5059C102.986 54.5624 103.056 53.3209 103.329 51.8096C103.604 50.262 104.044 48.5058 104.637 46.5853C105.221 44.6703 105.981 42.644 106.891 40.5593C107.796 38.4857 108.784 36.5569 109.822 34.8228C110.869 33.0832 111.882 31.6108 112.839 30.4446C113.775 29.3035 114.649 28.4462 115.428 27.9007C116.012 27.4943 116.338 27.4498 116.449 27.4498C116.506 27.4498 116.547 27.4581 116.586 27.4772C116.684 27.5193 117.011 27.7388 117.154 28.7714C117.284 29.7178 117.215 30.9424 116.948 32.4176ZM74.613 32.0279C74.4404 33.5643 74.1064 35.3179 73.6193 37.2439C73.1294 39.1644 72.4614 41.1851 71.6292 43.256C70.7997 45.3156 69.9174 47.2528 69.0017 49.0119C68.1054 50.732 67.2009 52.1988 66.3074 53.3734C65.439 54.5146 64.6235 55.3663 63.8803 55.9035C63.3321 56.3015 63.0258 56.3461 62.9228 56.3461C62.8755 56.3461 62.8334 56.3377 62.7892 56.3177C62.6893 56.2735 62.3439 56.0476 62.1657 54.9984C61.9988 54.0381 61.9848 52.7995 62.1184 51.3132C62.2576 49.8047 62.5721 48.0706 63.0563 46.1613C63.5407 44.2491 64.2114 42.2256 65.0464 40.1492C65.887 38.0617 66.7721 36.1273 67.6767 34.3905C68.5674 32.6732 69.4747 31.1896 70.3738 29.9789C71.2366 28.8099 72.0549 27.9471 72.7953 27.4099C73.3435 27.0118 73.6498 26.9673 73.7555 26.9673C73.8028 26.9673 73.8449 26.9756 73.8835 26.9957C73.9892 27.0399 74.3483 27.274 74.5683 28.3372C74.763 29.2836 74.7793 30.5222 74.613 32.0279ZM160.218 19.2635C162.263 19.2635 164.022 19.8898 165.448 21.1284C166.823 22.3224 167.805 24.0286 168.365 26.1968C168.907 28.2983 169.019 30.8395 168.698 33.7536C168.378 36.6316 167.538 39.9159 166.193 43.5148C164.927 46.9161 163.474 49.9081 161.882 52.4048C161.111 53.6184 160.318 54.754 159.513 55.8033C159.41 55.9369 159.564 56.1122 159.711 56.0316C160.179 55.7782 160.643 55.5027 161.103 55.2021C162.149 54.5258 163.154 53.7965 164.109 53.0255C166.772 50.8684 168.707 47.9515 169.648 44.6727C170.21 42.6993 170.833 40.7426 171.512 38.8137C172.626 35.6379 173.814 32.6737 175.047 30.0017C176.272 27.338 177.291 25.3451 178.076 24.0732C178.966 22.6258 180.213 21.724 181.791 21.39C183.266 21.0783 184.678 21.1005 185.975 21.451C187.302 21.8129 188.388 22.4697 189.198 23.4105C190.08 24.4375 190.272 25.6065 189.749 26.7922C189.593 27.2014 189.184 28.1366 188.533 29.5756C187.878 31.0229 187.144 32.7124 186.289 34.7498C185.468 36.7065 184.625 38.8246 183.784 41.0402C182.963 43.2168 182.32 45.2486 181.875 47.08C181.441 48.8614 181.271 50.3421 181.368 51.4805C181.463 52.5688 181.878 52.5688 182.103 52.5688C182.42 52.5688 182.983 52.4185 183.857 51.706C184.697 51.0101 185.585 50.1723 186.501 49.2037C187.417 48.2324 188.296 47.1858 189.109 46.0947C189.852 45.1011 190.489 44.2215 191.007 43.4784C191.458 42.8299 192.176 42.4597 192.975 42.4597C193.818 42.4597 194.636 42.8828 195.062 43.5368C195.477 44.1769 195.466 44.9396 195.026 45.6243C194.475 46.4844 193.512 47.9262 192.081 50.0387C190.665 52.1262 188.97 54.2777 187.043 56.4376C185.084 58.6281 182.944 60.5737 180.675 62.2186C178.29 63.9527 175.879 64.8294 173.516 64.8294C171.379 64.8294 169.784 64.089 168.774 62.625C167.855 61.289 167.388 59.4965 167.388 57.2977V56.947C167.393 56.6854 167.087 56.5379 166.884 56.7021C166.436 57.0611 165.974 57.4174 165.503 57.7681C162.725 59.8361 159.519 61.5896 155.967 62.9841C152.797 64.231 149.304 64.8628 145.585 64.8628L144.828 64.8545L144.068 64.8292C141.536 64.8236 139.657 64.0303 138.479 62.4634C138.271 62.1879 138.079 61.9039 137.909 61.6117C137.773 61.3778 137.419 61.4169 137.341 61.6779C136.96 62.9499 136.598 64.1774 136.264 65.3519C135.54 67.8764 134.922 70.0614 134.38 72.032C133.834 74.0081 133.361 75.809 132.971 77.3927C132.595 78.918 132.334 80.1538 132.2 81.0695L132.192 81.1034C131.849 82.8374 130.678 83.447 129.751 83.6557C129.339 83.7473 128.91 83.7949 128.476 83.7949C127.691 83.7949 126.862 83.6419 126.013 83.344C124.721 82.8875 123.561 82.0999 122.559 81.0005C121.52 79.8593 120.994 78.4315 120.994 76.7559C120.994 76.4163 121.081 75.6732 121.746 72.9371C122.244 70.9192 122.915 68.4086 123.747 65.4722C124.309 63.4821 124.95 61.3167 125.659 59.0009C125.742 58.7226 125.426 58.4916 125.186 58.6558C122.712 60.3397 119.937 61.7954 116.908 62.9839C113.735 64.2308 110.245 64.8626 106.527 64.8626C106.026 64.8626 105.513 64.8511 105.007 64.8289C102.477 64.8234 100.598 64.0301 99.418 62.4631C99.2092 62.1876 99.0199 61.9064 98.8502 61.6114C98.7111 61.3776 98.3603 61.4194 98.2824 61.6777C97.8983 62.9525 97.5364 64.1827 97.2024 65.3517C96.476 67.8845 95.8581 70.0722 95.3209 72.0317C94.7753 74.0079 94.2995 75.8087 93.9098 77.3924C93.534 78.9205 93.2752 80.1563 93.1388 81.0692L93.1332 81.1032C92.7909 82.8372 91.6163 83.4467 90.6894 83.6555C90.2775 83.747 89.8517 83.7946 89.4175 83.7946C88.6326 83.7946 87.8031 83.6415 86.9514 83.3437C85.6599 82.8874 84.5021 82.0996 83.5001 81.0002C82.4619 79.859 81.9358 78.4311 81.9358 76.7556C81.9358 76.4133 82.0189 75.6701 82.6874 72.9368C83.1885 70.8994 83.8592 68.3888 84.6858 65.4719C85.1757 63.7379 85.7184 61.8897 86.328 59.8941C86.4174 59.5934 86.0496 59.3652 85.8159 59.5795C84.7777 60.5259 83.7089 61.4082 82.6122 62.2154C80.2603 63.9494 77.8666 64.8289 75.5008 64.8289C73.3632 64.8289 71.7655 64.0885 70.758 62.6245C70.3517 62.0341 70.0345 61.3522 69.8035 60.5867C69.6003 59.9049 68.7263 59.696 68.2309 60.211C67.535 60.9346 66.7696 61.5943 65.9485 62.176C64.8797 62.9331 63.6857 63.5677 62.3942 64.0631C61.0638 64.5696 59.6248 64.8285 58.1162 64.8285C56.076 64.8285 54.2863 64.2079 52.8 62.9804C51.3527 61.7947 50.2811 60.1136 49.6103 57.9787C48.959 55.9107 48.7196 53.3695 48.8978 50.422C49.0759 47.5106 49.7383 44.2429 50.8684 40.7053C53.276 33.3684 56.4156 27.9214 60.2037 24.5062C64.0615 21.0271 67.9748 19.2624 71.8353 19.2624C73.4692 19.2624 74.8525 19.5908 75.9408 20.2365C77.0124 20.8767 77.839 21.7228 78.3985 22.7527C78.7714 23.4457 79.0442 24.1889 79.2112 24.9794C79.2413 25.1185 79.4311 25.1463 79.5007 25.0215C79.6956 24.6707 79.8821 24.3563 80.0574 24.0695C80.9481 22.6278 82.1783 21.726 83.7175 21.3892C85.1565 21.0775 86.5648 21.0969 87.8981 21.4481C89.2647 21.81 90.3697 22.4696 91.1824 23.4103C92.0647 24.4374 92.2568 25.6064 91.7307 26.7921C91.5776 27.1956 91.1824 28.1086 90.5172 29.5754C89.8686 31.0116 89.1116 32.7512 88.2738 34.7496C87.4443 36.7286 86.601 38.8467 85.7688 41.04C84.9449 43.2166 84.3019 45.2512 83.8594 47.0799C83.4252 48.864 83.2554 50.3447 83.3529 51.4803C83.4476 52.5686 83.8623 52.5686 84.085 52.5686C84.4052 52.5686 84.9673 52.4183 85.8385 51.7058C86.32 51.3077 86.8211 50.8597 87.3332 50.367C89.3177 48.4549 90.6481 46.3674 91.536 43.7705C92.7161 40.3247 93.9575 36.9235 95.2323 33.6447C96.5934 30.1572 97.921 27.0259 99.1791 24.3372C99.8359 22.9455 100.877 22.0075 102.263 21.5566C103.563 21.1335 104.896 21.0445 106.207 21.2923C107.515 21.5427 108.662 22.0633 109.614 22.8426C110.037 23.1877 110.374 23.5607 110.624 23.9531C110.69 24.0589 110.769 24.07 110.861 23.9837C111.985 22.9455 113.227 21.9936 114.565 21.1447C116.525 19.8949 118.743 19.2631 121.159 19.2631C123.202 19.2631 124.964 19.8894 126.386 21.128C127.764 22.3248 128.746 24.0282 129.306 26.1964C129.849 28.2951 129.96 30.8391 129.64 33.7532C129.32 36.6284 128.476 39.9155 127.135 43.5144C125.866 46.9184 124.413 49.9105 122.821 52.4044C122.05 53.618 121.256 54.7536 120.452 55.8029C120.349 55.9365 120.505 56.1118 120.653 56.0312C121.117 55.7778 121.582 55.5023 122.044 55.2017C122.793 54.7174 123.519 54.2053 124.221 53.6708C126.887 51.6446 128.877 48.8724 129.938 45.716L130.355 44.483C131.608 40.7812 132.933 37.135 134.291 33.6447C135.655 30.1516 136.982 27.0203 138.24 24.3372C138.895 22.9455 139.933 22.0103 141.324 21.5566C142.624 21.1335 143.957 21.0445 145.268 21.2922C146.577 21.5427 147.721 22.0632 148.672 22.8398C149.096 23.1877 149.432 23.5607 149.683 23.9531C149.75 24.0588 149.828 24.07 149.919 23.9837C151.044 22.9455 152.285 21.9936 153.624 21.1447C155.586 19.8948 157.805 19.2635 160.218 19.2635ZM32.2005 1.92608C35.1341 1.92608 38.0734 2.26566 40.9402 2.93082C43.8265 3.6044 46.4457 4.62865 48.7196 5.97579C51.0215 7.33963 52.9114 9.05138 54.3364 11.0637C55.7893 13.1123 56.5241 15.5143 56.5241 18.203C56.5241 21.0977 55.8784 23.8142 54.6036 26.2747C53.34 28.7101 51.6004 30.934 49.4378 32.8852C47.2946 34.8224 44.7534 36.5313 41.8838 37.962C39.5179 39.1421 37.0046 40.1497 34.3938 40.9596C34.2267 41.0122 34.1683 41.0988 34.1767 41.2658C34.2324 42.5461 34.3241 43.8125 34.455 45.0316C34.6025 46.4317 34.7973 47.7955 35.0368 49.0898C35.2705 50.3617 35.5544 51.6003 35.8745 52.7721C36.125 53.6794 36.4034 54.5618 36.7012 55.3996C36.8904 55.934 37.0908 56.4573 37.2941 56.9471C37.7032 57.9353 38.1542 58.8816 38.6329 59.7583C39.1032 60.6211 39.6126 61.4395 40.147 62.191C40.6675 62.923 41.2269 63.6105 41.8087 64.2395C42.3765 64.8519 42.9777 65.4141 43.5956 65.9151C44.1968 66.4021 44.8314 66.8447 45.4799 67.2232C46.1117 67.5962 46.7742 67.9191 47.4505 68.1863C48.1158 68.448 48.8032 68.6595 49.4963 68.8126C50.1921 68.9656 50.9074 69.063 51.6311 69.1104C52.352 69.1546 53.1035 69.1462 53.8522 69.0798C54.6149 69.0136 55.3942 68.8906 56.1679 68.7097C56.9612 68.526 57.7684 68.2838 58.5728 67.986C59.3967 67.6799 60.2288 67.3068 61.0499 66.8866C61.3645 66.7251 61.6817 66.5526 61.9963 66.3745C63.0206 65.79 64.3287 66.0684 65.0162 67.0146C65.7065 67.961 65.5535 69.2691 64.6628 70.0373C64.2258 70.4131 63.786 70.7804 63.3518 71.1312C62.2969 71.9828 61.2392 72.7733 60.2066 73.4775C59.2269 74.1455 58.2304 74.769 57.2451 75.3229C56.7525 75.6013 56.2348 75.874 55.7087 76.1356C54.6984 76.6421 53.6769 77.0876 52.6665 77.4605C51.6618 77.8306 50.6514 78.1396 49.6661 78.3734C48.6836 78.6072 47.6927 78.7769 46.7269 78.8744C46.0366 78.9438 45.3463 78.9801 44.6728 78.9801C44.4 78.9801 44.1272 78.9746 43.8544 78.9608C42.9192 78.9215 41.9896 78.8134 41.0878 78.638C40.6425 78.5518 40.1915 78.4459 39.7518 78.3234C39.326 78.2093 38.889 78.073 38.452 77.9143C37.6142 77.614 36.7819 77.2438 35.9859 76.8125C35.2066 76.3894 34.4384 75.9023 33.7091 75.3623C33.1191 74.9254 32.5401 74.4439 31.9918 73.9345C31.3321 73.3221 30.6892 72.6402 30.0796 71.9166C29.4784 71.2012 28.9023 70.4275 28.3679 69.6175C27.8308 68.8103 27.3241 67.9475 26.8565 67.0568C26.3917 66.1661 25.9492 65.2198 25.5484 64.2457C25.1503 63.2799 24.7801 62.2556 24.4434 61.1951C24.1121 60.1541 23.8088 59.0519 23.5415 57.9163C23.2771 56.7835 23.046 55.609 22.8541 54.4232C22.6815 53.3739 22.5368 52.2856 22.4226 51.1807C22.389 50.8467 21.9077 50.8022 21.8103 51.128C21.3928 52.5698 21.0143 53.967 20.6802 55.303C20.26 56.9786 19.8731 58.5039 19.5224 59.8733C19.1801 61.2149 18.9379 62.2948 18.7987 63.0825C18.5204 64.4797 17.5935 65.362 16.1072 65.6487C14.8297 65.8992 13.4575 65.7935 12.0435 65.3426C10.6463 64.8945 9.3771 64.118 8.26654 63.0297C7.1031 61.8885 6.51304 60.4551 6.51304 58.7656C6.51304 57.3906 6.86377 55.2168 7.58184 52.1245C8.2832 49.1046 9.2936 45.5252 10.5906 41.481C11.8765 37.4702 13.438 33.0475 15.2277 28.3436C16.7641 24.3022 18.4898 20.233 20.3602 16.2194C20.9725 14.9056 22.2389 14.0011 23.7002 13.8341C27.004 13.4556 29.8709 13.5501 32.3007 14.1124C33.7648 14.452 34.5497 16.019 33.9373 17.3689C32.3703 20.8147 30.9257 24.2521 29.6343 27.5977C28.5905 30.3059 27.5885 32.9863 26.6422 35.5943C26.5507 35.8532 26.8175 36.0925 27.068 35.9783C28.3289 35.4078 29.573 34.7342 30.7894 33.966C32.7822 32.7051 34.597 31.1993 36.1863 29.4931C37.7672 27.787 39.0642 25.8637 40.0412 23.7734C41.0043 21.7026 41.4941 19.4536 41.4941 17.0822C41.4941 14.0345 40.6368 11.7827 38.9473 10.3938C37.2356 8.98824 34.8252 8.27292 31.7802 8.27292C28.5376 8.27292 25.5734 9.03003 22.9709 10.5246C20.2989 12.0555 17.9888 13.937 16.1044 16.1192C14.2062 18.318 12.7087 20.6672 11.6594 23.1026C10.6185 25.5157 10.0896 27.6311 10.0896 29.3929C10.0896 30.6538 9.41331 31.5639 8.18581 31.9564C7.10866 32.3016 5.92018 32.2515 4.70107 31.8033C3.52927 31.3747 2.44378 30.5258 1.47238 29.2844C0.495416 28.0375 0 26.348 0 24.2633C0 22.443 0.701354 20.2998 2.14317 17.7113C3.54598 15.1868 5.62235 12.7291 8.30828 10.405C10.9914 8.08646 14.376 6.0741 18.3784 4.42636C22.4031 2.76749 27.0541 1.92608 32.2005 1.92608ZM191.873 0C196.362 0 200 3.59052 200 8.01603C200 12.4416 196.362 16.0321 191.873 16.0321C187.383 16.0321 183.745 12.4416 183.745 8.01603C183.745 3.59052 187.383 0 191.873 0Z" fill="#00FF1A"/>
</svg>
