<svg width="214" height="150" viewBox="0 0 214 150" fill="none" xmlns="http://www.w3.org/2000/svg">
<path d="M211.556 28.3353V18.8334H207.934C202.182 18.8334 197.921 21.4752 195.364 25.6083V19.2169H185.053V70.8169H195.45V41.5016C195.45 33.491 200.392 28.3353 207.21 28.3353H211.556ZM136.734 40.266C138.609 32.3832 145.085 27.0996 152.798 27.0996C160.51 27.0996 167.029 32.3406 168.776 40.266H136.734ZM153.011 18.2369C137.671 18.2369 125.996 30.4658 125.996 45.0382C125.996 60.4202 138.14 71.9674 153.948 71.9674C163.535 71.9674 171.375 67.8343 176.616 60.9315L169.074 55.4775C165.154 60.6333 159.999 63.062 153.905 63.062C145.043 63.062 137.927 56.7984 136.478 48.4044H179.258V45.0808C179.301 29.6562 168.18 18.2369 153.011 18.2369ZM93.5278 63.062C83.4293 63.062 75.3762 55.0514 75.3762 45.166C75.3762 35.1528 83.5146 27.2701 93.5278 27.2701C103.413 27.2701 111.552 35.1528 111.552 45.166C111.594 55.0514 103.456 63.062 93.5278 63.062ZM65.1925 70.8596H75.504V64.3829C80.2336 69.1552 86.9659 72.0526 94.2522 72.0526C109.719 72.0526 121.863 59.9941 121.863 45.1234C121.863 30.1675 109.719 18.109 94.2522 18.109C86.9233 18.109 80.3188 21.0491 75.5892 25.7787V0H65.1925V70.8596ZM28.591 62.5507C38.6042 62.5507 46.3165 54.9662 46.3165 43.7173V0H57.1393V70.8169H46.4017V64.2551C41.5442 69.1978 34.8545 72.0526 27.3127 72.0526C11.8454 72.0526 0 61.0168 0 44.3139V0H10.8654V43.7173C10.8654 55.1793 18.4925 62.5507 28.591 62.5507Z" fill="#00FF1A"/>
<path d="M100.218 122.474C100.218 113.526 93.0594 106.496 84.0262 106.496C75.1209 106.496 67.8346 113.526 67.8346 122.474C67.8346 131.422 75.1209 138.453 84.0262 138.453C93.0594 138.453 100.218 131.422 100.218 122.474ZM113.427 96.3121V148.679H99.9622V143.949C95.2751 147.827 89.3524 150 82.9184 150C66.9825 150 54.5405 137.771 54.5405 122.474C54.5405 107.22 67.0251 94.9486 82.9184 94.9486C89.3524 94.9486 95.2751 97.1217 99.9622 100.999V96.3121H113.427ZM158.167 136.791H148.026C144.958 136.791 142.955 135.47 142.955 132.658V108.158H158.124V96.3121H142.955V81.3988H129.363V96.3121H119.136V108.2H129.363V136.024C129.363 143.055 134.433 148.637 143.552 148.637H158.124V136.791H158.167ZM188.846 150C204.398 150 213.176 142.714 213.176 132.658C213.176 125.5 207.977 120.173 197.112 117.872L185.607 115.572C178.96 114.378 176.83 113.143 176.83 110.714C176.83 107.561 180.025 105.644 185.948 105.644C192.382 105.644 197.069 107.348 198.433 113.143H211.897C211.173 102.235 203.12 94.9486 186.843 94.9486C172.782 94.9486 162.896 100.658 162.896 111.694C162.896 119.321 168.35 124.306 180.068 126.735L192.893 129.633C197.964 130.613 199.327 131.934 199.327 133.979C199.327 137.26 195.493 139.305 189.314 139.305C181.559 139.305 177.085 137.601 175.381 131.806H161.789C163.791 142.714 172.057 150 188.846 150ZM0.213401 77.7343H50.9613V89.8354H13.9337V107.177H49.9813V118.938H13.9337V136.493H50.9613V148.594H0.213401V77.7343Z" fill="#00FF1A"/>
</svg>
