<svg width="25" height="25" viewBox="0 0 25 25" fill="none" xmlns="http://www.w3.org/2000/svg">
<path d="M21.3476 3.63445C20.1965 2.47742 18.8255 1.56015 17.3145 0.936167C15.8036 0.312182 14.1829 -0.00603251 12.5471 8.66013e-05C5.6928 8.66013e-05 0.10673 5.55944 0.100452 12.3844C0.100452 14.5703 0.674912 16.6969 1.75948 18.5797L0 25L6.59844 23.2781C8.42304 24.2691 10.4686 24.7876 12.5471 24.7859H12.5534C19.4092 24.7859 24.9937 19.2266 25 12.3954C25.0014 10.7673 24.6793 9.15511 24.0522 7.65153C23.4251 6.14795 22.5069 4.78272 21.3476 3.63445ZM12.5471 22.6891C10.6937 22.6876 8.87466 22.1912 7.27963 21.2516L6.90294 21.0266L2.98845 22.0484L4.03378 18.2469L3.78892 17.8547C2.75271 16.2146 2.20468 14.3157 2.20837 12.3782C2.20837 6.71256 6.84957 2.0907 12.5534 2.0907C13.9122 2.08828 15.2581 2.35363 16.5134 2.87147C17.7687 3.38931 18.9087 4.14938 19.8675 5.10788C20.8295 6.0628 21.5922 7.19779 22.1115 8.44744C22.6309 9.6971 22.8967 11.0367 22.8936 12.3891C22.8874 18.075 18.2462 22.6891 12.5471 22.6891ZM18.2211 14.9797C17.9118 14.825 16.3847 14.0766 16.0974 13.9704C15.8118 13.8688 15.603 13.8157 15.399 14.125C15.1902 14.4328 14.5938 15.1344 14.4149 15.336C14.2359 15.5438 14.0507 15.5672 13.74 15.4141C13.4307 15.2578 12.4278 14.9328 11.2412 13.875C10.3152 13.0547 9.69519 12.0391 9.50998 11.7313C9.33105 11.4219 9.49271 11.2563 9.6481 11.1016C9.78465 10.9641 9.9573 10.7391 10.1127 10.561C10.2696 10.3829 10.3214 10.2516 10.4235 10.0454C10.5255 9.83599 10.4768 9.65787 10.3999 9.50318C10.3214 9.34849 9.70147 7.82193 9.43935 7.20631C9.18822 6.5985 8.93238 6.68288 8.74089 6.67506C8.56196 6.66413 8.35321 6.66413 8.14446 6.66413C7.98684 6.66812 7.83174 6.70446 7.68887 6.77087C7.546 6.83727 7.41844 6.93232 7.31416 7.05006C7.0285 7.35944 6.22959 8.10787 6.22959 9.63443C6.22959 11.161 7.34398 12.6282 7.50094 12.836C7.65476 13.0438 9.68891 16.1672 12.8108 17.511C13.5485 17.8313 14.1292 18.0203 14.5828 18.1641C15.3284 18.4016 16.0017 18.3656 16.5385 18.2891C17.1349 18.1985 18.3764 17.5391 18.6386 16.8157C18.896 16.0907 18.896 15.4719 18.8175 15.3422C18.7406 15.211 18.5318 15.1344 18.2211 14.9797Z" fill="#00FF1A"/>
</svg>
