<svg width="83" height="32" viewBox="0 0 83 32" fill="none" xmlns="http://www.w3.org/2000/svg">
<path d="M7.0555 29.5C7.0555 29.4722 7.0555 29.4027 7.0555 29.2916C7.0555 29.1805 7.06937 29.1111 7.09719 29.0833L11.4305 15.75L4.8055 16.2083L5.43052 14.25L12.5555 13.25L18.3055 3.49999C18.2222 3.49999 18.0555 3.49999 17.8055 3.49999C17.5833 3.49999 17.3471 3.49999 17.0972 3.49999C16.8471 3.47221 16.5972 3.45832 16.3471 3.45832C16.1249 3.45832 15.9722 3.45832 15.8888 3.45832C14.8055 3.45832 13.7222 3.49999 12.6388 3.58332C11.5833 3.66666 10.5138 3.76388 9.43052 3.87499C8.34715 3.9861 7.26386 4.08332 6.18048 4.16666C5.12492 4.24999 4.0555 4.29166 2.97217 4.29166C2.63883 4.29166 2.34717 4.26388 2.09717 4.20832C1.84717 4.15277 1.63883 3.91666 1.47217 3.49999L2.3055 2.66666C2.3055 2.66666 2.58328 2.63888 3.13883 2.58332C3.72217 2.52777 4.47217 2.45832 5.38883 2.37499C6.3055 2.26388 7.34715 2.15277 8.51381 2.04166C9.68048 1.93055 10.8471 1.81943 12.0138 1.70832C13.2083 1.56943 14.3471 1.45832 15.4305 1.37499C16.5416 1.26388 17.4999 1.16666 18.3055 1.08332C18.3333 1.08332 18.4583 1.08332 18.6805 1.08332C18.9305 1.05555 19.0972 1.04166 19.1805 1.04166C19.2639 1.04166 19.4027 1.04166 19.5972 1.04166C19.7916 1.04166 19.9861 1.06943 20.1805 1.12499C20.375 1.18055 20.5277 1.26388 20.6388 1.37499C20.7777 1.4861 20.7916 1.65277 20.6805 1.87499L15.5555 13.0833H21.0555C21.2499 13.5278 21.2777 13.8889 21.1388 14.1667C20.9999 14.4444 20.7639 14.6667 20.4305 14.8333C20.0972 15 19.6666 15.125 19.1388 15.2083C18.6388 15.2639 18.1111 15.3195 17.5555 15.375C16.9999 15.4306 16.4583 15.4861 15.9305 15.5417C15.4027 15.5972 14.9444 15.6667 14.5555 15.75C14.0277 16.6667 13.4999 17.6389 12.9722 18.6667C12.4444 19.6944 11.9444 20.7361 11.4722 21.7916C11.0277 22.8472 10.6249 23.9306 10.2639 25.0417C9.93052 26.125 9.66661 27.1944 9.47217 28.25C9.52772 28.25 9.63883 28.2639 9.8055 28.2916C9.97217 28.2916 10.1388 28.3055 10.3055 28.3333C10.4722 28.3333 10.6249 28.3333 10.7639 28.3333C10.9305 28.3333 11.0416 28.3333 11.0972 28.3333C12.4583 28.3333 13.7916 28.2222 15.0972 28C16.4027 27.7778 17.7083 27.5417 19.0138 27.2916C20.3471 27.0417 21.6666 26.8055 22.9722 26.5833C24.3055 26.3611 25.6805 26.25 27.0972 26.25V27.875C25.5416 27.875 24.0138 28.0278 22.5138 28.3333C21.0138 28.6111 19.5138 28.9306 18.0138 29.2916C16.5416 29.6528 15.0555 29.9861 13.5555 30.2916C12.0833 30.5694 10.5833 30.7083 9.0555 30.7083C8.88883 30.7083 8.68048 30.6944 8.43052 30.6667C8.18048 30.6111 7.95826 30.5417 7.76386 30.4583C7.56937 30.3472 7.4027 30.2222 7.26386 30.0833C7.12492 29.9444 7.0555 29.75 7.0555 29.5Z" fill="white"/>
<path d="M31.5222 20.875C31.5222 20.0417 31.7028 19.125 32.0639 18.125C32.425 17.0972 32.9111 16.1528 33.5222 15.2916C34.1611 14.4027 34.8694 13.6667 35.6472 13.0833C36.4528 12.4722 37.2861 12.1667 38.1472 12.1667C38.6194 12.1667 39.0778 12.2639 39.5222 12.4583C39.9944 12.6528 40.4389 12.9167 40.8555 13.25C41.3 13.5555 41.6889 13.9167 42.0222 14.3333C42.3833 14.7222 42.6611 15.1389 42.8555 15.5833C43.05 16.0278 43.1472 16.4583 43.1472 16.875C43.175 17.2916 43.0639 17.6528 42.8139 17.9583L34.0222 19.5833C33.9111 19.6111 33.8139 19.75 33.7306 20C33.6472 20.2222 33.5778 20.5139 33.5222 20.875C33.4666 21.2361 33.4111 21.6389 33.3555 22.0833C33.3278 22.5 33.3 22.9167 33.2722 23.3333C33.2444 23.7222 33.2306 24.0833 33.2306 24.4167C33.2306 24.7222 33.2306 24.9583 33.2306 25.125C33.2306 25.9027 33.4111 26.5417 33.7722 27.0417C34.1611 27.5139 34.6472 27.875 35.2306 28.125C35.8139 28.375 36.4666 28.5417 37.1889 28.625C37.9389 28.7083 38.675 28.75 39.3972 28.75C40.1194 28.75 40.8 28.7222 41.4389 28.6667C42.0778 28.6111 42.6055 28.5833 43.0222 28.5833C43.0222 28.6944 42.9805 28.8195 42.8972 28.9583C42.8139 29.0972 42.7166 29.2361 42.6055 29.375C42.4944 29.4861 42.3833 29.5972 42.2722 29.7083C42.1611 29.7916 42.0917 29.8472 42.0639 29.875C41.8417 29.9306 41.4944 30.0139 41.0222 30.125C40.5778 30.2083 40.0917 30.2916 39.5639 30.375C39.0639 30.4583 38.5917 30.5278 38.1472 30.5833C37.7028 30.6389 37.3972 30.6667 37.2306 30.6667C36.3694 30.8333 35.6194 30.8195 34.9806 30.625C34.3417 30.4306 33.8 30.0972 33.3555 29.625C32.9111 29.1528 32.55 28.5833 32.2722 27.9167C31.9944 27.2222 31.7861 26.4861 31.6472 25.7083C31.5083 24.9306 31.425 24.125 31.3972 23.2916C31.3972 22.4583 31.4389 21.6528 31.5222 20.875ZM37.5639 13.75C37.3139 13.75 36.9806 13.8889 36.5639 14.1667C36.175 14.4167 35.8 14.75 35.4389 15.1667C35.1055 15.5555 34.8139 15.9861 34.5639 16.4583C34.3417 16.9027 34.2722 17.2916 34.3555 17.625C35.0778 17.7083 35.8278 17.6944 36.6055 17.5833C37.3833 17.4722 38.0917 17.3055 38.7306 17.0833C39.3694 16.8333 39.8972 16.5555 40.3139 16.25C40.7305 15.9167 40.925 15.5833 40.8972 15.25C40.8972 14.9167 40.6333 14.625 40.1055 14.375C39.6055 14.0972 38.7583 13.8889 37.5639 13.75Z" fill="white"/>
<path d="M51.1973 21.875L51.0306 20L54.9888 19.7916L58.4057 13.0833L47.4053 13.7916L47.1973 12.25C47.2248 12.25 47.5026 12.2222 48.0306 12.1667C48.5862 12.0833 49.2804 11.9861 50.1137 11.875C50.975 11.7639 51.9195 11.6389 52.947 11.5C54.0026 11.3611 55.0444 11.2361 56.0719 11.125C57.0999 11.0139 58.0724 10.9167 58.9888 10.8333C59.9057 10.7222 60.6693 10.6528 61.2804 10.625L57.5719 19.7916L61.5306 19.5L61.6137 21.4583L55.7804 21.875L53.3639 28.75C55.3915 28.8333 57.3915 28.8611 59.3639 28.8333C61.3639 28.7778 63.3777 28.75 65.4057 28.75V30.125C65.3222 30.125 64.9888 30.1389 64.4057 30.1667C63.8222 30.1944 63.0724 30.2361 62.1555 30.2916C61.239 30.3472 60.239 30.4027 59.1555 30.4583C58.0724 30.5139 56.9888 30.5694 55.9053 30.625C54.8222 30.6528 53.7942 30.6667 52.8222 30.6667C51.8777 30.6667 51.1137 30.6389 50.5306 30.5833L53.4888 21.875H51.1973Z" fill="white"/>
<path d="M69.8307 20.875C69.8307 20.0417 70.0111 19.125 70.372 18.125C70.7333 17.0972 71.2195 16.1528 71.8307 15.2916C72.4693 14.4028 73.1778 13.6667 73.9555 13.0833C74.7609 12.4722 75.5942 12.1667 76.4555 12.1667C76.9275 12.1667 77.3862 12.2639 77.8307 12.4583C78.3027 12.6528 78.7471 12.9167 79.164 13.25C79.6084 13.5556 79.9973 13.9167 80.3307 14.3333C80.6915 14.7222 80.9693 15.1389 81.164 15.5833C81.3582 16.0278 81.4555 16.4583 81.4555 16.875C81.4831 17.2916 81.372 17.6528 81.1222 17.9583L72.3307 19.5833C72.2195 19.6111 72.1222 19.75 72.0387 20C71.9555 20.2222 71.8862 20.5139 71.8307 20.875C71.7751 21.2361 71.7195 21.6389 71.664 22.0833C71.636 22.5 71.6084 22.9167 71.5804 23.3333C71.5529 23.7222 71.5387 24.0833 71.5387 24.4167C71.5387 24.7222 71.5387 24.9583 71.5387 25.125C71.5387 25.9028 71.7195 26.5417 72.0804 27.0417C72.4693 27.5139 72.9555 27.875 73.5387 28.125C74.1222 28.375 74.7751 28.5417 75.4973 28.625C76.2471 28.7084 76.9831 28.75 77.7053 28.75C78.4275 28.75 79.1084 28.7222 79.7471 28.6667C80.3862 28.6111 80.9138 28.5833 81.3307 28.5833C81.3307 28.6944 81.2889 28.8195 81.2053 28.9583C81.1222 29.0972 81.0249 29.2361 80.9138 29.375C80.8027 29.4861 80.6915 29.5972 80.5804 29.7084C80.4693 29.7916 80.4 29.8472 80.372 29.875C80.1498 29.9306 79.8027 30.0139 79.3307 30.125C78.8862 30.2084 78.4 30.2916 77.872 30.375C77.372 30.4583 76.9 30.5278 76.4555 30.5833C76.0111 30.6389 75.7053 30.6667 75.5387 30.6667C74.6778 30.8333 73.9275 30.8195 73.2889 30.625C72.6498 30.4306 72.1084 30.0972 71.664 29.625C71.2195 29.1528 70.8582 28.5833 70.5804 27.9167C70.3027 27.2222 70.0942 26.4861 69.9555 25.7084C69.8164 24.9306 69.7333 24.125 69.7053 23.2916C69.7053 22.4583 69.7471 21.6528 69.8307 20.875ZM75.872 13.75C75.6222 13.75 75.2889 13.8889 74.872 14.1667C74.4831 14.4167 74.1084 14.75 73.7471 15.1667C73.4138 15.5556 73.1222 15.9861 72.872 16.4583C72.6498 16.9028 72.5804 17.2916 72.664 17.625C73.3862 17.7084 74.136 17.6944 74.9138 17.5833C75.6915 17.4722 76.4 17.3056 77.0387 17.0833C77.6778 16.8333 78.2053 16.5556 78.6222 16.25C79.0387 15.9167 79.2333 15.5833 79.2053 15.25C79.2053 14.9167 78.9418 14.625 78.4138 14.375C77.9138 14.0972 77.0667 13.8889 75.872 13.75ZM78.2471 4.87502C77.8862 5.37502 77.5249 5.81947 77.164 6.20836C76.8027 6.56943 76.4418 6.94445 76.0804 7.33334C75.7471 7.69445 75.4138 8.08334 75.0804 8.5C74.7471 8.88889 74.3862 9.30556 73.9973 9.75L72.7889 9.12498C73.7609 7.87503 74.5111 6.86111 75.0387 6.08334C75.5667 5.30556 75.9555 4.72223 76.2053 4.33334C76.4831 3.94445 76.664 3.72223 76.7471 3.66667C76.8307 3.58334 76.9 3.59723 76.9555 3.70834C77.0387 3.81945 77.164 4 77.3307 4.25C77.4973 4.47223 77.8027 4.68054 78.2471 4.87502Z" fill="white"/>
</svg>
